<svg xmlns="http://www.w3.org/2000/svg" width="64" height="64"><radialGradient id="IkUh6ey5BhnCh~hrMs1fda" cx="32.5" cy="31.5" r="30.516" gradientUnits="userSpaceOnUse" spreadMethod="reflect"><stop offset="0" stop-color="#afeeff"/><stop offset=".193" stop-color="#bbf1ff"/><stop offset=".703" stop-color="#d7f8ff"/><stop offset="1" stop-color="#e1faff"/></radialGradient><path fill="url('#IkUh6ey5BhnCh~hrMs1fda')" d="M59 20h1.5a3.51 3.51 0 0 0 3.422-4.243C63.58 14.122 62.056 13 60.385 13H53a2 2 0 1 1 0-4h3.385c1.67 0 3.195-1.122 3.537-2.757A3.51 3.51 0 0 0 56.5 2h-48C6.575 2 5 3.575 5 5.5S6.575 9 8.5 9H10a2 2 0 1 1 0 4H4.615c-1.67 0-3.195 1.122-3.537 2.757A3.51 3.51 0 0 0 4.5 20H18v12H4.615c-1.67 0-3.195 1.122-3.537 2.757A3.51 3.51 0 0 0 4.5 39H5a2 2 0 1 1 0 4h-.5a3.51 3.51 0 0 0-3.422 4.243C1.42 48.878 2.945 50 4.615 50H10a2 2 0 1 1 0 4H8.615c-1.67 0-3.195 1.122-3.537 2.757A3.51 3.51 0 0 0 8.5 61h47c1.925 0 3.5-1.575 3.5-3.5S57.425 54 55.5 54H55a2 2 0 1 1 0-4h4.385c1.67 0 3.195-1.122 3.537-2.757A3.51 3.51 0 0 0 59.5 43H47V31h12.385c1.67 0 3.195-1.122 3.537-2.757A3.51 3.51 0 0 0 59.5 24H59a2 2 0 1 1 0-4z"/><linearGradient id="IkUh6ey5BhnCh~hrMs1fdb" x1="32" x2="32" y1="56" y2="6" gradientUnits="userSpaceOnUse" spreadMethod="reflect"><stop offset="0" stop-color="#ff634d"/><stop offset=".204" stop-color="#fe6464"/><stop offset=".521" stop-color="#fc6581"/><stop offset=".794" stop-color="#fa6694"/><stop offset=".989" stop-color="#fa669a"/><stop offset="1" stop-color="#fa669a"/></linearGradient><path fill="url('#IkUh6ey5BhnCh~hrMs1fdb')" d="M57 31c0 13.805-11.195 25-25 25S7 44.805 7 31 18.195 6 32 6s25 11.195 25 25z"/><path fill="#fff" d="M43.268 19.732a2.5 2.5 0 0 1 0 3.535L24.267 42.268a2.5 2.5 0 0 1-3.535-3.535l19.001-19.001a2.5 2.5 0 0 1 3.535 0z"/><path fill="#fff" d="M43.268 42.268a2.5 2.5 0 0 1-3.535 0L20.732 23.267a2.5 2.5 0 0 1 3.535-3.535l19.001 19.001a2.5 2.5 0 0 1 0 3.535z"/></svg>