<svg version="1.1" id="Layer_1" xmlns="http://www.w3.org/2000/svg" x="0" y="0" viewBox="0 0 511.999 511.999" style="enable-background:new 0 0 511.999 511.999" xml:space="preserve"><path style="fill:#7269ef" d="M490.459 139.522c-13.413-24.343-32.425-46.06-56.507-64.546-47.877-36.752-111.076-56.993-177.951-56.993-66.876 0-130.073 20.241-177.952 56.993-24.082 18.486-43.094 40.203-56.507 64.546C7.248 165.464 0 193.131 0 221.756s7.248 56.293 21.541 82.234c12.356 22.425 29.475 42.614 50.92 60.109L60.577 477.06c-1.238 11.769 10.762 20.443 21.549 15.576l150.582-67.943c7.701.548 15.47.836 23.291.836 66.875 0 130.073-20.241 177.951-56.993 24.082-18.486 43.094-40.203 56.507-64.546 14.294-25.942 21.541-53.609 21.541-82.234s-7.245-56.292-21.539-82.234z"/><path style="fill:#fff" d="M395.901 318.968C358.877 347.389 309.193 363.04 256 363.04s-102.879-15.652-139.902-44.072c-34.57-26.538-53.609-61.061-53.609-97.211s19.04-70.674 53.61-97.211c37.024-28.421 86.708-44.072 139.902-44.072 53.192 0 102.877 15.652 139.901 44.072 34.571 26.537 53.61 61.061 53.61 97.211s-19.04 70.673-53.611 97.211z"/><path style="opacity:.1;enable-background:new" d="M85.211 244.48c0-36.15 19.04-70.674 53.61-97.211 37.024-28.421 86.708-44.072 139.902-44.072 53.192 0 102.877 15.652 139.901 44.072a177.902 177.902 0 0 1 4.337 3.451c-7.529-9.339-16.575-18.126-27.06-26.174C358.877 96.125 309.193 80.474 256 80.474s-102.879 15.652-139.902 44.072c-34.571 26.537-53.61 61.06-53.61 97.211 0 34.606 17.457 67.715 49.274 93.761-17.298-21.458-26.551-45.852-26.551-71.038z"/><path style="fill:#515262" d="M256 286.413c-16.154 0-31.402-5.514-40.79-14.747a8.521 8.521 0 0 1 11.949-12.15c6.181 6.08 17.232 9.855 28.841 9.855 11.671 0 22.751-3.806 28.917-9.931 3.338-3.316 8.735-3.299 12.05.039a8.52 8.52 0 0 1-.039 12.05c-9.38 9.319-24.681 14.884-40.928 14.884z"/><circle style="fill:#515262" cx="212.665" cy="195.782" r="16.284"/><circle style="fill:#515262" cx="299.444" cy="195.782" r="16.284"/></svg>