<svg xmlns="http://www.w3.org/2000/svg" width="64" height="64"><radialGradient id="GyR6CHCZxzi48GxCc4DQla" cx="32" cy="31.5" r="31.751" gradientUnits="userSpaceOnUse" spreadMethod="reflect"><stop offset="0" stop-color="#ecd59c"/><stop offset=".242" stop-color="#efd9a4"/><stop offset=".627" stop-color="#f6e5bb"/><stop offset="1" stop-color="#fff3d8"/></radialGradient><path fill="url('#GyR6CHCZxzi48GxCc4DQla')" d="M60.5 32a3.51 3.51 0 0 0 3.422-4.243C63.58 26.122 62.056 25 60.385 25H43v-7h14.386c1.67 0 3.195-1.122 3.537-2.757A3.51 3.51 0 0 0 57.5 11H46a2 2 0 1 1 0-4h4.385c1.67 0 3.195-1.122 3.537-2.757A3.51 3.51 0 0 0 50.5 0H10.615C8.944 0 7.42 1.122 7.078 2.757A3.51 3.51 0 0 0 10.5 7H13a2 2 0 1 1 0 4H6.615c-1.67 0-3.195 1.122-3.537 2.757A3.51 3.51 0 0 0 6.5 18H22v15H3.614c-1.67 0-3.195 1.122-3.537 2.757A3.51 3.51 0 0 0 3.5 40H4a2 2 0 1 1 0 4h-.385C1.945 44 .42 45.122.078 46.757A3.51 3.51 0 0 0 3.5 51h21.115A2.385 2.385 0 0 1 27 53.385v.229A2.385 2.385 0 0 1 24.615 56h-5c-1.67 0-3.195 1.122-3.537 2.757A3.51 3.51 0 0 0 19.5 63h38.885c1.67 0 3.195-1.122 3.537-2.757A3.51 3.51 0 0 0 58.5 56h-3.115A2.385 2.385 0 0 1 53 53.615v-.229A2.385 2.385 0 0 1 55.385 51c1.67 0 3.195-1.122 3.537-2.757A3.51 3.51 0 0 0 55.5 44H43V32h17.5z"/><linearGradient id="GyR6CHCZxzi48GxCc4DQlb" x1="32" x2="32" y1="9" y2="59" gradientUnits="userSpaceOnUse" spreadMethod="reflect"><stop offset="0" stop-color="#42d778"/><stop offset=".428" stop-color="#3dca76"/><stop offset="1" stop-color="#34b171"/></linearGradient><path fill="url('#GyR6CHCZxzi48GxCc4DQlb')" d="M52 9H12a5 5 0 0 0-5 5v42.35A2.65 2.65 0 0 0 9.65 59h.007a2.65 2.65 0 0 0 2.137-1.083l5.041-6.874A5 5 0 0 1 20.867 49H52a5 5 0 0 0 5-5V14a5 5 0 0 0-5-5z"/><linearGradient id="GyR6CHCZxzi48GxCc4DQlc" x1="14.5" x2="14.5" y1="13.262" y2="39.596" gradientUnits="userSpaceOnUse" spreadMethod="reflect"><stop offset="0" stop-color="#62de8f"/><stop offset=".478" stop-color="#5dd18d"/><stop offset="1" stop-color="#56be89"/></linearGradient><path fill="url('#GyR6CHCZxzi48GxCc4DQlc')" d="M18 21.5a2.5 2.5 0 0 0-2.5-2.5h-1a2.5 2.5 0 1 1 0-5h5a2.5 2.5 0 1 0 0-5H12a5 5 0 0 0-5 5v10h8.5a2.5 2.5 0 0 0 2.5-2.5z"/><linearGradient id="GyR6CHCZxzi48GxCc4DQld" x1="23" x2="23" y1="15.686" y2="37.604" gradientUnits="userSpaceOnUse" spreadMethod="reflect"><stop offset="0" stop-color="#62de8f"/><stop offset=".478" stop-color="#5dd18d"/><stop offset="1" stop-color="#56be89"/></linearGradient><path fill="url('#GyR6CHCZxzi48GxCc4DQld')" d="M23 20a2 2 0 1 0 0 4 2 2 0 1 0 0-4Z"/><linearGradient id="GyR6CHCZxzi48GxCc4DQle" x1="45.5" x2="45.5" y1="49" y2="32" gradientUnits="userSpaceOnUse" spreadMethod="reflect"><stop offset="0" stop-color="#37ab6a"/><stop offset=".422" stop-color="#39b66f"/><stop offset="1" stop-color="#3ac074"/></linearGradient><path fill="url('#GyR6CHCZxzi48GxCc4DQle')" d="M45 35a3 3 0 0 0 3 3h.5a2.5 2.5 0 1 1 0 5H37a3 3 0 1 0 0 6h15a5 5 0 0 0 5-5V32h-9a3 3 0 0 0-3 3z"/><linearGradient id="GyR6CHCZxzi48GxCc4DQlf" x1="40" x2="40" y1="47.248" y2="32.859" gradientUnits="userSpaceOnUse" spreadMethod="reflect"><stop offset="0" stop-color="#37ab6a"/><stop offset=".422" stop-color="#39b66f"/><stop offset="1" stop-color="#3ac074"/></linearGradient><path fill="url('#GyR6CHCZxzi48GxCc4DQlf')" d="M40 32a3 3 0 1 0 0 6 3 3 0 1 0 0-6Z"/></svg>